<mxfile host="app.diagrams.net" modified="2021-01-25T10:00:26.297Z" agent="5.0 (Windows NT 10.0; Win64; x64) AppleWebKit/537.36 (KHTML, like Gecko) Chrome/88.0.4324.104 Safari/537.36" etag="1luPfRB8vJntyesLQa3i" version="14.2.7" type="github">
  <diagram id="R2lEEEUBdFMjLlhIrx00" name="Page-1">
    <mxGraphModel dx="1038" dy="548" grid="1" gridSize="10" guides="1" tooltips="1" connect="1" arrows="1" fold="1" page="1" pageScale="1" pageWidth="850" pageHeight="1100" math="0" shadow="0" extFonts="Permanent Marker^https://fonts.googleapis.com/css?family=Permanent+Marker">
      <root>
        <mxCell id="0" />
        <mxCell id="1" parent="0" />
        <mxCell id="khKGMIoFA6-e5MvvgHSB-1" value="&lt;div&gt;•&lt;span&gt;Hjälp jultomten att rita ett ER diagram för sin nya databas där&lt;/span&gt;&lt;/div&gt;&lt;div&gt;följande ska ingå:&lt;/div&gt;&lt;div&gt;•&lt;span&gt;Alla barn i hela världen, med namn och adress&lt;/span&gt;&lt;/div&gt;&lt;div&gt;•&lt;span&gt;Alla länder som barnen bor i. Varje land har ett unikt namn.&lt;/span&gt;&lt;/div&gt;&lt;div&gt;•&lt;span&gt;Presenter (alltså de saker som barnen kan önska sig och som de får om de&lt;/span&gt;&lt;/div&gt;&lt;div&gt;varit snälla)&lt;/div&gt;&lt;div&gt;•&lt;span&gt;Önskelistor som anger vilka presenter som varje barn önskar sig. Varje barn&lt;/span&gt;&lt;/div&gt;&lt;div&gt;ska kunna önska sig hur många presenter som helst, men det måste gå att&lt;/div&gt;&lt;div&gt;hantera att det finns en inbördes ordning mellan önskningarna.&lt;/div&gt;&lt;div&gt;•&lt;span&gt;Vilka presenter på önskelistan som varje barn faktiskt får.&lt;/span&gt;&lt;/div&gt;" style="text;html=1;align=center;verticalAlign=middle;resizable=0;points=[];autosize=1;" vertex="1" parent="1">
          <mxGeometry x="200" y="340" width="420" height="140" as="geometry" />
        </mxCell>
        <mxCell id="khKGMIoFA6-e5MvvgHSB-2" value="Child" style="whiteSpace=wrap;html=1;align=center;" vertex="1" parent="1">
          <mxGeometry x="140" y="150" width="100" height="40" as="geometry" />
        </mxCell>
        <mxCell id="khKGMIoFA6-e5MvvgHSB-3" value="Address" style="ellipse;whiteSpace=wrap;html=1;align=center;" vertex="1" parent="1">
          <mxGeometry x="140" y="70" width="100" height="40" as="geometry" />
        </mxCell>
        <mxCell id="khKGMIoFA6-e5MvvgHSB-4" value="Street address" style="ellipse;whiteSpace=wrap;html=1;align=center;" vertex="1" parent="1">
          <mxGeometry x="20" y="10" width="100" height="40" as="geometry" />
        </mxCell>
        <mxCell id="khKGMIoFA6-e5MvvgHSB-5" value="Zip code" style="ellipse;whiteSpace=wrap;html=1;align=center;" vertex="1" parent="1">
          <mxGeometry x="140" y="10" width="100" height="40" as="geometry" />
        </mxCell>
        <mxCell id="khKGMIoFA6-e5MvvgHSB-6" value="City" style="ellipse;whiteSpace=wrap;html=1;align=center;" vertex="1" parent="1">
          <mxGeometry x="260" y="10" width="100" height="40" as="geometry" />
        </mxCell>
        <mxCell id="khKGMIoFA6-e5MvvgHSB-7" value="" style="endArrow=none;html=1;rounded=0;exitX=0.5;exitY=1;exitDx=0;exitDy=0;entryX=0;entryY=0;entryDx=0;entryDy=0;" edge="1" parent="1" source="khKGMIoFA6-e5MvvgHSB-4" target="khKGMIoFA6-e5MvvgHSB-3">
          <mxGeometry relative="1" as="geometry">
            <mxPoint x="260" y="100" as="sourcePoint" />
            <mxPoint x="420" y="100" as="targetPoint" />
          </mxGeometry>
        </mxCell>
        <mxCell id="khKGMIoFA6-e5MvvgHSB-8" value="" style="endArrow=none;html=1;rounded=0;exitX=0.5;exitY=1;exitDx=0;exitDy=0;entryX=0.5;entryY=0;entryDx=0;entryDy=0;" edge="1" parent="1" source="khKGMIoFA6-e5MvvgHSB-5" target="khKGMIoFA6-e5MvvgHSB-3">
          <mxGeometry relative="1" as="geometry">
            <mxPoint x="320" y="90" as="sourcePoint" />
            <mxPoint x="404.64466094067257" y="115.85786437626894" as="targetPoint" />
          </mxGeometry>
        </mxCell>
        <mxCell id="khKGMIoFA6-e5MvvgHSB-9" value="" style="endArrow=none;html=1;rounded=0;exitX=0.5;exitY=1;exitDx=0;exitDy=0;entryX=1;entryY=0;entryDx=0;entryDy=0;" edge="1" parent="1" source="khKGMIoFA6-e5MvvgHSB-6" target="khKGMIoFA6-e5MvvgHSB-3">
          <mxGeometry relative="1" as="geometry">
            <mxPoint x="90" y="70" as="sourcePoint" />
            <mxPoint x="174.64466094067257" y="95.85786437626894" as="targetPoint" />
          </mxGeometry>
        </mxCell>
        <mxCell id="khKGMIoFA6-e5MvvgHSB-10" value="" style="endArrow=none;html=1;rounded=0;exitX=0.5;exitY=1;exitDx=0;exitDy=0;" edge="1" parent="1" source="khKGMIoFA6-e5MvvgHSB-3" target="khKGMIoFA6-e5MvvgHSB-2">
          <mxGeometry relative="1" as="geometry">
            <mxPoint x="340" y="260" as="sourcePoint" />
            <mxPoint x="500" y="260" as="targetPoint" />
          </mxGeometry>
        </mxCell>
        <mxCell id="khKGMIoFA6-e5MvvgHSB-11" value="Personal nr" style="ellipse;whiteSpace=wrap;html=1;align=center;fontStyle=4;" vertex="1" parent="1">
          <mxGeometry x="10" y="90" width="100" height="40" as="geometry" />
        </mxCell>
        <mxCell id="khKGMIoFA6-e5MvvgHSB-12" value="" style="endArrow=none;html=1;rounded=0;exitX=1;exitY=1;exitDx=0;exitDy=0;entryX=0;entryY=0;entryDx=0;entryDy=0;" edge="1" parent="1" source="khKGMIoFA6-e5MvvgHSB-11" target="khKGMIoFA6-e5MvvgHSB-2">
          <mxGeometry relative="1" as="geometry">
            <mxPoint x="340" y="260" as="sourcePoint" />
            <mxPoint x="500" y="260" as="targetPoint" />
          </mxGeometry>
        </mxCell>
      </root>
    </mxGraphModel>
  </diagram>
</mxfile>
